# xmcd
# Track frame offsets:
# 150
# 16826
# 34268
# 55876
# 75240
# 96548
# 116665
# 131815
# 150015
# 165681
#
# Disc length: 2465 seconds
# Revision: 0
# Processed by: cddbd v1.4PL0 Copyright (c) Steve Scherf et al.
# Submitted via: VisiTrax 2.9.5.180 - For more info visit www.synapsa.com
#
DISCID=72099f0a
DTITLE=Robert Cray Band - Don't Be Afraid Of The Dark
DYEAR=1988
DGENRE=
TTITLE0=Don't Be Afraid Of The Dark
TTITLE1=Don't You Even Care
TTITLE2=Your Secret's Safe With Me
TTITLE3=I Can't Go Home
TTITLE4=Night Patrol
TTITLE5=Acting This Way
TTITLE6=Gotta Change The Rules
TTITLE7=Across The Line
TTITLE8=At Last
TTITLE9=Laugh Out Loud
EXTD=
EXTT0=
EXTT1=
EXTT2=
EXTT3=
EXTT4=
EXTT5=
EXTT6=
EXTT7=
EXTT8=
EXTT9=
PLAYORDER=
